<svg width="383" height="334" viewBox="0 0 383 334" fill="none" xmlns="http://www.w3.org/2000/svg">
<g filter="url(#filter0_d)">
<path d="M314.931 238.422C316.227 200.749 262.316 167.652 194.517 164.499C126.718 161.345 70.7052 189.329 69.4092 227.003C68.1132 264.676 122.025 297.773 189.824 300.926C257.623 304.08 313.635 276.096 314.931 238.422Z" fill="#CCCCCC"/>
<path d="M314.102 225.879C315.691 188.25 262.082 154.614 194.365 150.749C126.647 146.884 70.4638 174.255 68.8754 211.883C67.287 249.511 120.895 283.148 188.613 287.013C256.33 290.878 312.514 263.507 314.102 225.879Z" fill="#E6E6E6"/>
<path opacity="0.48" d="M234.415 274.648C238.243 273.188 241.947 271.324 245.484 269.082C252.981 264.316 258.343 257.492 264.73 251.123C271.528 244.343 278.058 235.637 285.661 230.048L186.483 195.29L120.482 190.491C117.859 190.614 112.822 195.702 110.428 197.26C106.531 199.799 105.852 185.626 101.935 188.142C92.2168 194.366 78.2277 211.188 80.43 225.417C82.5078 239.044 97.4065 247.605 106.493 254.118C123.556 266.365 143.07 273.234 162.785 276.719C182.241 280.159 203.536 281.885 223.021 277.944C226.883 277.168 230.691 276.067 234.415 274.648Z" fill="url(#paint0_linear)"/>
<path d="M191.117 268.068C246.077 268.068 290.63 243.31 290.63 212.769C290.63 182.228 246.077 157.47 191.117 157.47C136.158 157.47 91.604 182.228 91.604 212.769C91.604 243.31 136.158 268.068 191.117 268.068Z" fill="#3A9B7D"/>
<path d="M191.117 259.162C246.077 259.162 290.63 234.403 290.63 203.862C290.63 173.322 246.077 148.563 191.117 148.563C136.158 148.563 91.604 173.322 91.604 203.862C91.604 234.403 136.158 259.162 191.117 259.162Z" fill="#76DDBD"/>
<path opacity="0.48" d="M143.366 181.574L99.3981 212.212C100.48 212.777 101.343 213.789 101.821 215.051C106.503 226.452 115.743 234.546 124.801 241.048C132.085 246.367 140.194 249.975 148.671 251.669C170.157 234.557 198.825 211.723 202.684 208.895L209.386 186.372L143.366 181.574Z" fill="url(#paint1_linear)"/>
<path d="M236.043 41.5607V96.8934L278.891 125.161V69.8283L236.043 41.5607Z" fill="#375E97"/>
<path d="M140.638 236.16L192.036 201.747C192.215 201.619 192.357 201.433 192.447 201.212C192.537 200.992 192.571 200.745 192.543 200.503C192.516 200.261 192.429 200.034 192.294 199.847C192.158 199.661 191.979 199.524 191.778 199.454C186.588 198.34 181.408 197.227 176.19 196.27C173.164 195.735 171.268 197.984 168.664 199.821L140.264 219.861C139.077 220.696 140.159 222.867 141.356 222.021L168.52 202.894C170.421 201.736 172.257 200.438 174.016 199.008C174.322 198.713 174.664 198.473 175.031 198.296C173.758 198.752 175.146 198.552 175.988 198.752C181.035 200.021 186.195 200.834 191.308 201.87L191.05 199.576L139.651 233.989C139.433 234.173 139.281 234.444 139.225 234.751C139.17 235.057 139.215 235.377 139.351 235.647C139.488 235.917 139.706 236.118 139.964 236.211C140.221 236.304 140.499 236.282 140.743 236.149L140.638 236.16Z" fill="white"/>
<path d="M190.734 201.513L198.04 210.42L198.26 208.449L159.682 234.913C159.464 235.097 159.312 235.368 159.256 235.675C159.201 235.981 159.246 236.301 159.382 236.571C159.519 236.841 159.737 237.043 159.994 237.135C160.252 237.228 160.53 237.206 160.774 237.073L199.352 210.542C199.492 210.444 199.612 210.31 199.702 210.15C199.792 209.99 199.849 209.808 199.871 209.619C199.892 209.43 199.876 209.237 199.824 209.056C199.772 208.874 199.686 208.709 199.572 208.572L192.266 199.665C191.309 198.552 189.786 200.278 190.744 201.435L190.734 201.513Z" fill="white"/>
<path d="M212.077 154.753C212.077 154.753 210.64 197.706 209.444 202.159C208.247 206.612 196.996 221.086 167.314 214.951C137.631 208.817 164.92 109.853 164.92 109.853" fill="#1B4075"/>
<path d="M179.349 53.1728C179.349 53.1728 224.907 55.1434 231.054 97.2385C237.201 139.334 213.992 170.485 176.822 169.538" fill="#1B4075"/>
<path d="M125.231 96.86C125.231 96.86 122.359 113.449 123.546 122.467C124.734 131.485 120.559 148.24 123.249 161.044C125.94 173.847 130.143 204.33 143.156 205.265C156.168 206.2 190.179 198.864 197.992 181.473C205.805 164.083 227.205 107.336 214.202 81.6073C201.2 55.8782 178.421 48.6972 157.585 55.6667C136.75 62.6361 126.457 88.0424 125.231 96.86Z" fill="#375E97"/>
<path opacity="0.78" d="M164.843 53.8519C164.843 53.8519 125.825 68.7261 138.598 92.1283C151.371 115.531 208.965 72.9901 208.965 72.9901C208.965 72.9901 198.834 49.3318 164.843 53.8519Z" fill="white"/>
<path d="M215.83 111.845C214.365 111.394 212.855 111.162 211.339 111.155C193.003 111.022 180.594 131.718 183.141 151.825C184.587 163.226 191.5 173.791 202.291 171.977C217.487 169.427 230.059 142.863 227.358 126.241C226.82 122.812 225.448 119.633 223.405 117.082C221.362 114.531 218.734 112.714 215.83 111.845Z" fill="#375E97"/>
<path opacity="0.47" d="M215.83 111.845C214.365 111.394 212.855 111.162 211.339 111.155C193.003 111.022 180.594 131.718 183.141 151.825C184.587 163.226 191.5 173.791 202.291 171.977C217.487 169.427 230.059 142.863 227.358 126.241C226.82 122.812 225.448 119.633 223.405 117.082C221.362 114.531 218.734 112.714 215.83 111.845Z" fill="#1B4075"/>
<path d="M219.507 113.437C218.041 112.986 216.532 112.754 215.016 112.747C196.68 112.614 184.271 133.31 186.818 153.417C188.264 164.818 195.177 175.383 205.968 173.569C221.163 171.019 233.735 144.455 231.035 127.833C230.497 124.404 229.125 121.226 227.082 118.674C225.039 116.123 222.41 114.306 219.507 113.437Z" fill="#375E97"/>
<path d="M169.736 138.343C163.455 138.588 157.202 138.343 151.544 134.836C149.839 133.778 148.326 136.784 150.031 137.853C156.168 141.661 162.919 142.106 169.746 141.839C171.661 141.761 171.67 138.265 169.736 138.343Z" fill="white"/>
<path d="M136.348 131.952C131.562 131.879 126.901 130.172 122.943 127.042C121.172 125.662 119.515 128.991 121.277 130.382C125.74 133.859 130.976 135.751 136.348 135.827C138.474 135.827 138.474 131.997 136.348 131.952Z" fill="white"/>
<path d="M139.919 224.069C141.955 224.069 143.606 222.788 143.606 221.208C143.606 219.628 141.955 218.347 139.919 218.347C137.884 218.347 136.233 219.628 136.233 221.208C136.233 222.788 137.884 224.069 139.919 224.069Z" fill="white"/>
<path d="M139.919 237.942C141.955 237.942 143.606 236.661 143.606 235.08C143.606 233.5 141.955 232.219 139.919 232.219C137.884 232.219 136.233 233.5 136.233 235.08C136.233 236.661 137.884 237.942 139.919 237.942Z" fill="white"/>
<path d="M160.659 239.311C162.695 239.311 164.345 238.03 164.345 236.45C164.345 234.87 162.695 233.589 160.659 233.589C158.623 233.589 156.973 234.87 156.973 236.45C156.973 238.03 158.623 239.311 160.659 239.311Z" fill="white"/>
<path opacity="0.48" d="M222.715 256.067C235.765 245.167 255.107 227.977 256.964 226.608L250.865 224.236L239.375 218.213L200.539 247.505C203.553 250.588 207.069 252.934 210.879 254.405C214.688 255.876 218.713 256.441 222.715 256.067Z" fill="url(#paint2_linear)"/>
<path d="M207.643 100.278L205.728 92.685C205.342 91.1389 205.41 89.487 205.921 87.9908C206.433 86.4945 207.359 85.2394 208.553 84.4241C209.34 83.8886 210.218 83.5605 211.125 83.463C212.033 83.3656 212.948 83.5011 213.806 83.8601C214.663 84.219 215.443 84.7926 216.089 85.5403C216.735 86.288 217.231 87.1916 217.544 88.1871L219.842 95.5351C220.351 97.1629 220.341 98.949 219.814 100.569C219.287 102.189 218.278 103.536 216.969 104.364L216.577 104.609C215.761 105.122 214.856 105.417 213.93 105.471C213.003 105.525 212.078 105.338 211.221 104.923C210.365 104.508 209.599 103.875 208.98 103.071C208.361 102.268 207.904 101.313 207.643 100.278Z" fill="white"/>
<path d="M254.695 205.577C255.126 206.768 257.06 223.39 256.936 226.597C256.811 229.803 252.589 230.159 251.296 230.026C250.003 229.892 247.466 228.534 245.848 228.467C244.23 228.4 235.315 226.441 235.583 223.702C235.851 220.963 237.383 218.314 239.413 218.135C241.443 217.957 246.853 218.403 246.853 218.403L246.307 203.384" fill="#FF6753"/>
<path d="M256.447 222.077C252.168 223.76 247.523 223.693 243.282 221.887C242.491 221.577 241.765 221.08 241.148 220.426C240.532 219.773 240.039 218.978 239.701 218.091H239.49C237.479 218.213 235.928 220.852 235.66 223.58C235.392 226.307 244.277 228.356 245.896 228.423C247.514 228.489 250.032 229.892 251.325 230.026C252.617 230.159 256.84 229.881 256.983 226.686C256.982 225.109 256.905 223.533 256.754 221.965L256.447 222.077Z" fill="#312A87"/>
<path d="M216.816 92.2619C216.816 92.2619 214.825 88.844 214.825 87.1851C214.825 85.5263 216.567 87.7084 216.567 87.7084L216.338 83.5C216.338 83.5 217.688 85.9493 218.358 87.0849C219.028 88.2205 221.23 93.6536 221.594 94.6111C221.958 95.5685 225.51 98.2071 225.51 98.2071C225.51 98.2071 224.495 102.059 223.423 102.326C222.351 102.594 217.065 97.0493 217.065 97.0493L216.816 92.2619Z" fill="#F04900"/>
<path d="M223.423 93.687C223.423 93.687 219.497 97.7395 220.168 102.349C220.168 102.349 225.118 113.783 230.47 115.709C235.823 117.635 238.868 105.344 237.403 103.551C235.938 101.759 223.423 93.687 223.423 93.687Z" fill="#6949C1"/>
<path d="M211.014 105.544C211.014 105.544 209.185 103.585 209.501 102.983C209.817 102.382 210.65 96.86 210.238 95.7467C209.549 93.7872 207.797 98.1403 207.797 98.1403L207.299 90.4806C207.299 90.4806 205.384 92.9077 205.47 94.2771C205.556 95.6465 205.374 104.809 205.47 105.488C205.566 106.167 207.213 111.055 207.213 111.055" fill="#F04900"/>
<path d="M252.876 127.321C255.443 132.942 256.843 139.183 256.964 145.546C257.098 153.339 257.472 216.265 257.472 216.265C257.472 216.265 251.775 220.184 240.964 216.532C239.394 215.998 237.403 162.369 237.403 162.369L241.108 134.713" fill="#4739AA"/>
<path d="M232.673 224.593C233.056 225.806 234.252 242.473 233.994 245.746C233.735 249.019 229.503 249.086 228.249 248.841C226.995 248.596 224.486 247.115 222.877 246.96C221.269 246.804 212.46 244.321 212.833 241.593C213.207 238.866 214.863 236.316 216.874 236.294C218.885 236.272 224.294 236.995 224.294 236.995L224.409 221.965" fill="#FF6753"/>
<path d="M237.565 205.655C237.633 205.367 237.716 205.085 237.814 204.809C238.838 196.673 240.769 188.728 243.559 181.173C244.239 176.842 244.68 174.003 244.727 173.78C247.916 158.895 245.532 154.854 246.307 132.364L232.433 133.188C232.433 133.188 224.773 162.58 221.987 189.077C221.317 195.435 220.464 230.048 220.464 230.048C220.464 230.048 227.32 235.548 235.622 232.442L235.899 230.616C234.128 222.322 235.679 213.76 237.565 205.655Z" fill="#4739AA"/>
<path d="M231.591 116.9C231.227 110.676 229.283 107.403 230.518 101.369C234.348 96.4926 241.635 90.6031 242.41 90.4249L246.508 91.5383C248.23 92.0032 249.77 93.1188 250.887 94.7104C252.005 96.302 252.637 98.2796 252.684 100.334C252.905 109.986 253.221 126.096 252.876 127.376C252.531 128.657 244.402 136.773 232.414 133.233C232.079 127.744 231.916 122.289 231.591 116.9Z" fill="#A07DEF"/>
<path d="M233.123 80.16C233.123 80.16 231.428 94.6333 235.995 95.8469C240.562 97.0604 245.618 90.7255 245.857 87.7641C246.097 84.8026 239.222 74.8828 233.123 80.16Z" fill="#F04900"/>
<path d="M234.588 72.6339C234.099 72.8454 229.877 75.7957 230.154 77.7997C230.432 79.8037 231.112 84.2237 232.366 83.5111C233.62 82.7986 233.582 80.1711 234.588 82.1306C235.593 84.0901 236.426 85.6265 237.46 85.1255C237.768 84.9904 238.097 84.9297 238.426 84.9469C238.756 84.9641 239.078 85.059 239.375 85.2257C239.375 85.2257 239.375 95.6576 240.447 94.9785C241.52 94.2993 245.867 92.1283 247.447 88.9665C248.404 86.9736 248.691 83.2662 248.404 80.2602C248.352 78.8427 248.024 77.4574 247.447 76.2077C246.154 74.1369 237.987 71.1309 234.588 72.6339Z" fill="#FBB03B"/>
<path d="M247.437 76.2188C247.437 76.2188 252.416 83.7004 251.985 92.9188C251.554 102.137 237.403 103.54 237.403 103.54L239.318 85.2702" fill="#FBB03B"/>
<path d="M206.6 110.855C206.929 109.601 207.497 108.45 208.261 107.487C209.026 106.523 209.966 105.772 211.014 105.288C214.911 109.574 219.631 114.195 221.24 113.504C223.538 112.391 228.115 99.9996 234.645 99.365C241.175 98.7304 240.974 109.218 240.974 109.218C240.974 109.218 229.609 129.614 223.442 129.971C218.473 130.26 209.453 120.106 205.91 115.219C206.004 113.739 206.236 112.276 206.6 110.855Z" fill="#A07DEF"/>
<path d="M230.758 240.48C226.612 241.593 222.083 242.306 218.885 238.253C218.448 237.692 218.093 237.053 217.831 236.361H216.874C214.863 236.361 213.207 238.932 212.833 241.66C212.46 244.388 221.278 246.859 222.877 247.026C224.476 247.193 226.956 248.708 228.249 248.908C229.542 249.108 233.764 249.042 233.994 245.813C234.053 243.979 234.024 242.143 233.908 240.313C232.869 240.534 231.809 240.59 230.758 240.48Z" fill="#312A87"/>
<path d="M250.568 146.96C250.654 146.259 249.735 145.958 249.611 146.659C246.135 175.194 233.333 202.07 235.248 231.451C235.248 232.163 236.206 232.163 236.206 231.451C234.339 202.17 247.102 175.383 250.568 146.96Z" fill="#A07DEF"/>
</g>
<defs>
<filter id="filter0_d" x="-4" y="0" width="391" height="342" filterUnits="userSpaceOnUse" color-interpolation-filters="sRGB">
<feFlood flood-opacity="0" result="BackgroundImageFix"/>
<feColorMatrix in="SourceAlpha" type="matrix" values="0 0 0 0 0 0 0 0 0 0 0 0 0 0 0 0 0 0 127 0"/>
<feOffset dy="4"/>
<feGaussianBlur stdDeviation="2"/>
<feColorMatrix type="matrix" values="0 0 0 0 0 0 0 0 0 0 0 0 0 0 0 0 0 0 0.25 0"/>
<feBlend mode="normal" in2="BackgroundImageFix" result="effect1_dropShadow"/>
<feBlend mode="normal" in="SourceGraphic" in2="effect1_dropShadow" result="shape"/>
</filter>
<linearGradient id="paint0_linear" x1="154.148" y1="294.031" x2="181.876" y2="243.892" gradientUnits="userSpaceOnUse">
<stop offset="0.01" stop-color="white" stop-opacity="0"/>
<stop offset="1" stop-color="#999999"/>
</linearGradient>
<linearGradient id="paint1_linear" x1="103.933" y1="276.318" x2="169.801" y2="208.284" gradientUnits="userSpaceOnUse">
<stop offset="0.01" stop-color="white" stop-opacity="0"/>
<stop offset="1" stop-color="#006D9D"/>
</linearGradient>
<linearGradient id="paint2_linear" x1="12491.1" y1="8995.06" x2="13624" y2="7536.77" gradientUnits="userSpaceOnUse">
<stop offset="0.01" stop-color="white" stop-opacity="0"/>
<stop offset="1" stop-color="#006D9D"/>
</linearGradient>
</defs>
</svg>
